# xmcd
#
# Track frame offsets:
#	150
#	12829
#	34508
#	45088
#	57925
#	71908
#	82621
#	92853
#	107108
#	122364
#	136315
#	149760
#	160216
#	168311
#	183309
#	198200
#	210104
#	221663
#	239531
#	251460
#
# Disc length: 3515 seconds
#
# Revision: 0
# Processed by: cddbd v1.5.1PL0 Copyright (c) Steve Scherf et al.
# Submitted via: dBpowerAMP V4.0
#
DISCID=090db914
DTITLE=Ron Knuth - Out On A Mesa
DYEAR=1900
DGENRE=
TTITLE0=Cherry Spring Swing
TTITLE1=Talking To Eulalio On The Patio At Hondo's
TTITLE2=Out On A Mesa
TTITLE3=New Country Singer
TTITLE4=Ol' Mont Little
TTITLE5=Billy In The Low Ground
TTITLE6=Dessert Song
TTITLE7=I Love You So Much It Hurts Me
TTITLE8=Mexico
TTITLE9=Tia's Polka
TTITLE10=So Begin The Blues
TTITLE11=Good Love
TTITLE12=Lonely Appendicitis
TTITLE13=Fire Of Love
TTITLE14=Arkansas Traveler
TTITLE15=Going Too Far For Too Little Too Long
TTITLE16=Augie's Polka
TTITLE17=I'll Always Be There (Tia's Tune)
TTITLE18=Things I Gotta' Do
TTITLE19=Sweet Georgia Brown
EXTD=
EXTT0=
EXTT1=
EXTT2=
EXTT3=
EXTT4=
EXTT5=
EXTT6=
EXTT7=
EXTT8=
EXTT9=
EXTT10=
EXTT11=
EXTT12=
EXTT13=
EXTT14=
EXTT15=
EXTT16=
EXTT17=
EXTT18=
EXTT19=
PLAYORDER=
